<?xml version="1.0" encoding="UTF-8"?>
<svg version="1.1" xmlns="http://www.w3.org/2000/svg" width="512" height="512">
<path d="M0 0 C2.6373026 0.0031599 5.2734797 -0.02037717 7.91064453 -0.0456543 C35.63342463 -0.1497878 59.94497736 10.27293539 80.77392578 28.31567383 C81.51900391 28.95891602 82.26408203 29.6021582 83.03173828 30.26489258 C100.86298921 46.90498706 113.61154498 72.90567706 114.77392578 97.31567383 C113.78392578 97.31567383 112.79392578 97.31567383 111.77392578 97.31567383 C112.09876953 98.81614258 112.09876953 98.81614258 112.43017578 100.34692383 C114.00993439 108.45484411 114.89951566 116.28520587 114.76220703 124.56176758 C114.7463002 125.63335617 114.7463002 125.63335617 114.73007202 126.72659302 C114.66671051 130.33637567 114.55786656 133.93934594 114.39892578 137.54614258 C114.36306717 138.89508242 114.32788164 140.24404038 114.29345703 141.59301758 C114.24294189 142.79176514 114.19242676 143.9905127 114.14038086 145.22558594 C114.48481536 148.59907001 114.48481536 148.59907001 117.70336914 150.61254883 C118.71665283 151.17458008 119.72993652 151.73661133 120.77392578 152.31567383 C126.48343876 159.31398464 128.32965124 169.09797994 128.02001953 177.96801758 C126.77347256 189.85967997 124.36947295 201.63892129 115.08642578 209.94067383 C110.87034292 213.29415582 107.11355465 213.76818475 101.77392578 213.31567383 C98.33642578 211.31567383 98.33642578 211.31567383 95.77392578 209.31567383 C93.8684924 214.22968624 92.18351361 219.16740096 90.58642578 224.19067383 C84.65272218 242.29408061 76.16506951 259.73308328 63.77392578 274.31567383 C63.12166016 275.12391602 62.46939453 275.9321582 61.79736328 276.76489258 C55.19555861 284.60303522 47.11424284 290.97344411 37.77392578 295.31567383 C36.38655197 311.34546582 35.96599268 328.29817435 42.77392578 343.31567383 C45.61792344 346.54557081 48.56605575 348.51728432 52.33251953 350.56567383 C53.42967285 351.16774658 54.52682617 351.76981934 55.65722656 352.39013672 C56.23635803 352.70387238 56.8154895 353.01760803 57.41217041 353.34085083 C59.86255627 354.66845142 62.30461608 356.01103235 64.74713135 357.3530426 C65.98774112 358.03462436 67.22874992 358.71548031 68.47015381 359.39561462 C73.8162451 362.32736938 79.11482241 365.33651667 84.39892578 368.37817383 C91.99555318 372.74224081 99.62494009 377.04404892 107.27392578 381.31567383 C115.81785951 386.08769717 124.33201103 390.90727488 132.82080078 395.77661133 C139.61397128 399.66724534 146.43950876 403.49803564 153.27392578 407.31567383 C163.73455463 413.1634001 174.18273845 419.02999519 184.55273438 425.03735352 C186.54054396 426.18136 188.53942576 427.30201546 190.54345703 428.41723633 C209.3861512 439.28028421 221.02079337 456.72184065 226.96142578 477.50317383 C229.88454467 489.13647694 230.77392578 500.26573271 230.77392578 512.31567383 C78.31392578 512.31567383 -74.14607422 512.31567383 -231.22607422 512.31567383 C-231.22607422 483.67051969 -224.86822261 459.59614589 -204.73779297 438.48364258 C-199.48249718 433.2671295 -193.9397498 429.8552475 -187.41357422 426.44067383 C-185.18778843 425.23591478 -182.96253578 424.03017029 -180.73779297 422.82348633 C-179.63741699 422.23341797 -178.53704102 421.64334961 -177.40332031 421.03540039 C-172.79741737 418.54239437 -168.26137701 415.93423731 -163.72607422 413.31567383 C-156.08776386 408.93103007 -148.41525264 404.61042991 -140.72607422 400.31567383 C-132.13546376 395.51681274 -123.57180137 390.67467193 -115.03417969 385.78222656 C-108.65184296 382.12609571 -102.25553326 378.49540711 -95.85107422 374.87817383 C-94.8987793 374.34015137 -93.94648438 373.80212891 -92.96533203 373.24780273 C-87.07573878 369.92162267 -81.18259234 366.60180723 -75.28735352 363.28564453 C-72.40349514 361.65776439 -69.52759111 360.01644236 -66.65185547 358.37426758 C-63.18266252 356.39864377 -59.68891652 354.49937853 -56.14404297 352.66333008 C-46.89012362 348.05835183 -46.89012362 348.05835183 -41.28857422 339.75317383 C-40.8778822 337.95263992 -40.518693 336.13912235 -40.22607422 334.31567383 C-40.02498047 333.62344727 -39.82388672 332.9312207 -39.61669922 332.21801758 C-36.32403156 320.67143302 -37.04005307 307.20035831 -37.22607422 295.31567383 C-37.94279297 295.21383789 -38.65951172 295.11200195 -39.39794922 295.00708008 C-54.96654642 291.20094513 -67.73039452 274.46529562 -75.67919922 261.38208008 C-77.99108638 257.42632432 -80.13139861 253.38973116 -82.22607422 249.31567383 C-82.83064453 248.15938477 -83.43521484 247.0030957 -84.05810547 245.81176758 C-89.68743166 234.43874965 -93.39731884 222.38682621 -97.22607422 210.31567383 C-97.98017578 210.80293945 -98.73427734 211.29020508 -99.51123047 211.79223633 C-103.03836469 213.7714915 -105.22649739 213.73668192 -109.22607422 213.31567383 C-116.7097026 210.71931296 -120.59785778 204.99358142 -123.97607422 198.12817383 C-128.97449899 186.42768111 -129.60941024 173.54773481 -126.22607422 161.31567383 C-122.83803526 153.35438087 -122.83803526 153.35438087 -119.12329102 150.96069336 C-117.02254309 149.52146748 -117.02254309 149.52146748 -117.04321289 147.39331055 C-117.17961182 146.6432373 -117.31601074 145.89316406 -117.45654297 145.12036133 C-121.7354682 115.09720361 -118.05723013 82.54414973 -100.12841797 57.37036133 C-91.47534293 46.41285185 -81.68810441 38.46293872 -69.22607422 32.31567383 C-68.56607422 32.31567383 -67.90607422 32.31567383 -67.22607422 32.31567383 C-66.91669922 31.03692383 -66.60732422 29.75817383 -66.28857422 28.44067383 C-63.32438791 19.64507428 -56.15512736 13.01797672 -48.15185547 8.62426758 C-32.60939013 1.67269763 -16.83780835 -0.04210232 0 0 Z " fill="#F8C4B7" transform="translate(256.22607421875,-0.315673828125)"/>
<path d="M0 0 C0.66644531 0.2990625 1.33289063 0.598125 2.01953125 0.90625 C3.11523438 1.33679688 4.2109375 1.76734375 5.33984375 2.2109375 C6.60848754 2.73336928 7.87669807 3.2568541 9.14453125 3.78125 C28.873686 11.79084755 51.69882725 14.96525647 72.01953125 6.90625 C75.73445491 5.11704893 79.33447319 3.17529438 82.8984375 1.1015625 C86.87664172 -0.42200507 88.13047566 0.35425956 92.01953125 1.90625 C93.81589033 2.80467846 95.58825224 3.75240173 97.3359375 4.7421875 C98.33625 5.30550781 99.3365625 5.86882812 100.3671875 6.44921875 C101.95853516 7.35607422 101.95853516 7.35607422 103.58203125 8.28125 C104.69320313 8.90902344 105.804375 9.53679687 106.94921875 10.18359375 C114.66883333 14.55069 122.36889321 18.952433 130.06274414 23.36474609 C136.85679222 27.25678801 143.68368382 31.08817912 150.51953125 34.90625 C159.06343283 39.67833161 167.57761584 44.49785067 176.06640625 49.3671875 C182.85957675 53.25782151 189.68511423 57.08861181 196.51953125 60.90625 C206.9801601 66.75397627 217.42834392 72.62057136 227.79833984 78.62792969 C229.78614943 79.77193617 231.78503123 80.89259163 233.7890625 82.0078125 C252.63175667 92.87086038 264.26639883 110.31241682 270.20703125 131.09375 C273.13015014 142.72705311 274.01953125 153.85630888 274.01953125 165.90625 C121.55953125 165.90625 -30.90046875 165.90625 -187.98046875 165.90625 C-187.98046875 137.26109586 -181.62261714 113.18672206 -161.4921875 92.07421875 C-156.23689171 86.85770567 -150.69414433 83.44582367 -144.16796875 80.03125 C-141.94218296 78.82649095 -139.71693031 77.62074646 -137.4921875 76.4140625 C-136.39181152 75.82399414 -135.29143555 75.23392578 -134.15771484 74.62597656 C-129.55181191 72.13297055 -125.01577154 69.52481348 -120.48046875 66.90625 C-112.84215839 62.52160625 -105.16964717 58.20100608 -97.48046875 53.90625 C-88.88985829 49.10738892 -80.3261959 44.26524811 -71.78857422 39.37280273 C-62.52093472 34.063822 -53.21995627 28.81430236 -43.91845703 23.56494141 C-39.94140261 21.31962748 -35.96594466 19.07149757 -31.9909668 16.82250977 C-30.04678633 15.72362516 -28.10165635 14.62641854 -26.15551758 13.53100586 C-21.79004461 11.07251744 -17.43778485 8.59800633 -13.12109375 6.0546875 C-12.38366943 5.62510742 -11.64624512 5.19552734 -10.88647461 4.75292969 C-9.53496317 3.96424593 -8.1889358 3.16605255 -6.84985352 2.35644531 C-2.5746863 -0.12187864 -2.5746863 -0.12187864 0 0 Z " fill="#646CB1" transform="translate(212.98046875,346.09375)"/>
<path d="M0 0 C0.66257812 0.30679687 1.32515625 0.61359375 2.0078125 0.9296875 C3.10351562 1.36023438 4.19921875 1.79078125 5.328125 2.234375 C6.59676879 2.75680678 7.86497932 3.2802916 9.1328125 3.8046875 C28.86196725 11.81428505 51.6871085 14.98869397 72.0078125 6.9296875 C75.72273616 5.14048643 79.32275444 3.19873188 82.88671875 1.125 C86.86492297 -0.39856757 88.11875691 0.37769706 92.0078125 1.9296875 C93.80417158 2.82811596 95.57653349 3.77583923 97.32421875 4.765625 C98.32453125 5.32894531 99.32484375 5.89226562 100.35546875 6.47265625 C101.41636719 7.07722656 102.47726562 7.68179687 103.5703125 8.3046875 C105.23707031 9.24634766 105.23707031 9.24634766 106.9375 10.20703125 C114.65711458 14.5741275 122.35717446 18.9758705 130.05102539 23.38818359 C136.84507962 27.28022903 143.67224759 31.11110234 150.5078125 34.9296875 C154.67548712 37.2612244 158.84211881 39.59461322 163.0078125 41.9296875 C164.03229492 42.50380371 165.05677734 43.07791992 166.11230469 43.66943359 C169.03901827 45.31306918 171.96153943 46.96390595 174.8828125 48.6171875 C175.76259766 49.11025391 176.64238281 49.60332031 177.54882812 50.11132812 C178.7621582 50.8006543 178.7621582 50.8006543 180 51.50390625 C180.70495605 51.90182373 181.40991211 52.29974121 182.13623047 52.7097168 C184.0078125 53.9296875 184.0078125 53.9296875 187.0078125 56.9296875 C186.6778125 71.4496875 186.3478125 85.9696875 186.0078125 100.9296875 C91.6278125 100.9296875 -2.7521875 100.9296875 -99.9921875 100.9296875 C-100.3221875 86.0796875 -100.6521875 71.2296875 -100.9921875 55.9296875 C-88.43954527 48.54578031 -75.88108305 41.24890871 -63.0690918 34.32666016 C-56.02809463 30.51570388 -49.0682009 26.57788328 -42.12768555 22.58740234 C-33.92962188 17.87838408 -25.68273163 13.25857341 -17.4284668 8.64892578 C-16.43113525 8.09188965 -15.43380371 7.53485352 -14.40625 6.9609375 C-13.4668457 6.44015625 -12.52744141 5.919375 -11.55957031 5.3828125 C-9.97404038 4.485411 -8.40201658 3.56302123 -6.85449219 2.6015625 C-2.51713919 -0.08884021 -2.51713919 -0.08884021 0 0 Z " fill="#7F6DAF" transform="translate(212.9921875,346.0703125)"/>
<path d="M0 0 C2.6373026 0.0031599 5.2734797 -0.02037717 7.91064453 -0.0456543 C35.63342463 -0.1497878 59.94497736 10.27293539 80.77392578 28.31567383 C81.51900391 28.95891602 82.26408203 29.6021582 83.03173828 30.26489258 C100.86298921 46.90498706 113.61154498 72.90567706 114.77392578 97.31567383 C113.78392578 97.31567383 112.79392578 97.31567383 111.77392578 97.31567383 C111.99048828 98.35079102 112.20705078 99.3859082 112.43017578 100.45239258 C115.13812897 114.60160877 118.89085405 135.5565147 113.77392578 149.31567383 C112.62923828 149.93442383 112.62923828 149.93442383 111.46142578 150.56567383 C104.50275363 155.09690221 102.99552283 165.47783097 101.24414062 173.07250977 C99.77191789 180.09576132 98.78299215 187.21398701 97.77392578 194.31567383 C95.13392578 194.31567383 92.49392578 194.31567383 89.77392578 194.31567383 C88.14179396 182.46831693 86.99504112 170.58105987 85.9152832 158.67285156 C84.81737051 146.87717532 83.03974257 135.26416407 80.83642578 123.62817383 C80.67980469 122.76901367 80.52318359 121.90985352 80.36181641 121.0246582 C79.22108294 114.98467901 77.64623468 109.16908623 75.77392578 103.31567383 C75.09104492 103.30109131 74.40816406 103.28650879 73.70458984 103.27148438 C54.20985913 102.80942334 35.27973213 101.91003821 16.77392578 95.31567383 C15.78392578 94.98567383 14.79392578 94.65567383 13.77392578 94.31567383 C14.23283203 94.75137695 14.69173828 95.18708008 15.16455078 95.63598633 C18.93747165 99.29793893 22.03624098 102.82587075 24.77392578 107.31567383 C1.53069428 104.67557404 -23.2538567 96.53666987 -41.34619141 81.33984375 C-44.29124591 79.02492478 -45.73544289 78.25836528 -49.50341797 78.69848633 C-58.56753883 82.20073295 -72.25750273 88.25954644 -76.66357422 97.31567383 C-77.55658761 100.10761377 -77.55658761 100.10761377 -78.22607422 103.31567383 C-78.64100966 104.80683736 -79.06212431 106.29628866 -79.48779297 107.78442383 C-82.63101289 119.14543259 -84.67654664 130.64122013 -86.22607422 142.31567383 C-86.31985352 143.00177734 -86.41363281 143.68788086 -86.51025391 144.39477539 C-88.13280881 156.52586275 -88.83195464 168.73117815 -89.52905273 180.94360352 C-89.64398071 182.88928223 -89.64398071 182.88928223 -89.76123047 184.87426758 C-89.8599646 186.62694946 -89.8599646 186.62694946 -89.96069336 188.41503906 C-90.22607422 191.31567383 -90.22607422 191.31567383 -91.22607422 194.31567383 C-93.86607422 194.31567383 -96.50607422 194.31567383 -99.22607422 194.31567383 C-99.38164795 193.53554932 -99.53722168 192.7554248 -99.69750977 191.95166016 C-100.42447846 188.34136024 -101.16893114 184.73486807 -101.91357422 181.12817383 C-102.15785156 179.90163086 -102.40212891 178.67508789 -102.65380859 177.41137695 C-105.2041372 162.47343811 -105.2041372 162.47343811 -113.22607422 150.31567383 C-114.21607422 149.98567383 -115.20607422 149.65567383 -116.22607422 149.31567383 C-118.45689467 140.7492206 -118.62457382 132.23524586 -118.60107422 123.44067383 C-118.60086273 122.71223267 -118.60065125 121.9837915 -118.60043335 121.23327637 C-118.51885442 93.04176372 -110.82098038 67.65612686 -90.92138672 46.91333008 C-85.64866071 41.85669939 -75.08241472 32.31567383 -67.22607422 32.31567383 C-66.91669922 31.03692383 -66.60732422 29.75817383 -66.28857422 28.44067383 C-63.32438791 19.64507428 -56.15512736 13.01797672 -48.15185547 8.62426758 C-32.60939013 1.67269763 -16.83780835 -0.04210232 0 0 Z " fill="#2A2E6D" transform="translate(256.22607421875,-0.315673828125)"/>
<path d="M0 0 C3.88289636 0.459213 6.63784221 1.73671471 9.96484375 3.73828125 C10.9192334 4.30522705 11.87362305 4.87217285 12.85693359 5.45629883 C13.87352051 6.06884521 14.89010742 6.6813916 15.9375 7.3125 C23.22379619 11.65323669 30.53501535 15.86760526 38.04077148 19.81787109 C46.73706296 24.4038558 54.28975365 28.69925197 61 36 C61.68578125 36.680625 62.3715625 37.36125 63.078125 38.0625 C81.1742565 56.84932354 86 82.84905707 86 108 C57.29 108 28.58 108 -1 108 C-1.04010881 81.33655486 -1.04010881 81.33655486 -1.04882812 70.01367188 C-1.05481728 62.27269815 -1.0619195 54.5317362 -1.07543945 46.79077148 C-1.08626592 40.553297 -1.09227632 34.31583513 -1.09487724 28.07835197 C-1.09673193 25.69279723 -1.10035336 23.30724321 -1.10573006 20.9216938 C-1.11293729 17.59304409 -1.11399108 14.26444721 -1.11352539 10.93579102 C-1.11712067 9.93885727 -1.12071594 8.94192352 -1.12442017 7.91477966 C-1.1230455 7.01309052 -1.12167084 6.11140137 -1.12025452 5.18238831 C-1.12117631 4.3942553 -1.1220981 3.6061223 -1.12304783 2.79410648 C-1 1 -1 1 0 0 Z " fill="#575F99" transform="translate(401,404)"/>
<path d="M0 0 C0 35.64 0 71.28 0 108 C-28.71 108 -57.42 108 -87 108 C-87 79.35484586 -80.64214839 55.28047206 -60.51171875 34.16796875 C-55.25647207 28.95150441 -49.71381634 25.5393727 -43.1875 22.125 C-40.98774305 20.93458776 -38.78853391 19.74316272 -36.58984375 18.55078125 C-35.49269043 17.96248535 -34.39553711 17.37418945 -33.26513672 16.76806641 C-28.21258963 14.03212009 -23.23085849 11.17628338 -18.25 8.3125 C-17.38785889 7.81959473 -16.52571777 7.32668945 -15.63745117 6.81884766 C-14.83412354 6.35913574 -14.0307959 5.89942383 -13.203125 5.42578125 C-12.46384766 5.00377441 -11.72457031 4.58176758 -10.96289062 4.14697266 C-9.33921277 3.19821164 -7.75020405 2.19039461 -6.171875 1.16796875 C-4 0 -4 0 0 0 Z " fill="#575F99" transform="translate(112,404)"/>
<path d="M0 0 C0.06993164 0.5983667 0.13986328 1.1967334 0.21191406 1.81323242 C1.57791646 13.24746309 3.01600014 24.14270308 7 35 C7.33 35.99 7.66 36.98 8 38 C-10.33965539 49.76381499 -31.23227066 53.09104587 -52.625 48.8125 C-62.20414782 46.35986795 -71.27452357 42.61936987 -80 38 C-79.54621817 32.76023793 -78.79131891 27.83586749 -75 24 C-68.47133647 21.01154585 -61.09719922 20.42130216 -54.04638672 19.48071289 C-49.24494767 18.72305674 -44.64467032 17.41298433 -40 16 C-39.30213379 15.78819092 -38.60426758 15.57638184 -37.88525391 15.3581543 C-35.95309965 14.74855063 -34.03801885 14.10464625 -32.125 13.4375 C-31.42882568 13.19499512 -30.73265137 12.95249023 -30.01538086 12.70263672 C-22.70501216 10.05377844 -15.74666421 6.68991698 -8.77978516 3.25170898 C-7.92562012 2.83091064 -7.07145508 2.4101123 -6.19140625 1.9765625 C-5.04973999 1.40542725 -5.04973999 1.40542725 -3.88500977 0.82275391 C-2 0 -2 0 0 0 Z " fill="#F8C4B7" transform="translate(292,308)"/>
<path d="M0 0 C0 3.96 0 7.92 0 12 C-12.33873376 18.86713402 -24.59951896 24.53763981 -38 29 C-38.9178125 29.31453125 -39.835625 29.6290625 -40.78125 29.953125 C-46.10086346 31.66560331 -51.55638689 32.87716922 -57 34.125 C-57.73613525 34.29604248 -58.47227051 34.46708496 -59.23071289 34.64331055 C-64.79250042 35.87700719 -70.32457295 36.5364278 -76 37 C-75.86722656 35.741875 -75.73445312 34.48375 -75.59765625 33.1875 C-74.48499678 22.46474386 -73.57137386 11.76588651 -73 1 C-72.29875 1.19335938 -71.5975 1.38671875 -70.875 1.5859375 C-68.89809588 2.12851173 -66.9201688 2.66736809 -64.94140625 3.203125 C-63.23883686 3.66437886 -61.5375303 4.13046161 -59.83984375 4.609375 C-37.38563794 10.69552524 -20.94282331 0 0 0 Z " fill="#F5A997" transform="translate(293,295)"/>
<path d="M0 0 C5.64793568 3.72763755 8.47101618 9.58439671 10.125 16.0625 C12.57845959 29.31118177 10.77305517 43.0923441 3.80859375 54.74609375 C0.64585229 59.09761507 -2.74191623 62.35147208 -7.875 64.0625 C-12.06888686 64.4581497 -14.42520732 64.27906685 -18.25 62.4375 C-21.53365421 59.46657476 -21.59007201 58.43467094 -21.875 54.0625 C-21.48964596 50.68602935 -20.82054785 47.38726651 -20.125 44.0625 C-19.93744141 43.12986328 -19.74988281 42.19722656 -19.55664062 41.23632812 C-19.17874552 39.36748851 -18.79602525 37.49961732 -18.40820312 35.6328125 C-17.95217154 33.4345064 -17.51100828 31.23419525 -17.078125 29.03125 C-12.43318414 6.11620844 -12.43318414 6.11620844 -5.875 0.0625 C-2.875 -0.9375 -2.875 -0.9375 0 0 Z " fill="#F4A896" transform="translate(372.875,148.9375)"/>
<path d="M0 0 C4.22933812 1.69173525 6.0411969 4.96502557 7.84375 9.03125 C12.18388306 22.05164919 15.0036965 35.51486316 16.24511719 49.19189453 C16.41592022 51.09682808 16.41592022 51.09682808 17.5 53 C17.99625668 58.21069519 17.99625668 58.21069519 17.5 61 C14.74306426 63.67339223 12.8601928 63.96070624 9.0625 64.375 C3.60403959 63.80042522 0.16044356 61.96037618 -3.5625 58 C-12.07066733 47.34804248 -14.63445765 33.70544547 -13.22265625 20.3828125 C-12.17467567 13.17669841 -10.14873617 6.18022141 -4.4921875 1.25 C-2.5 0 -2.5 0 0 0 Z " fill="#F4A896" transform="translate(141.5,149)"/>
<path d="M0 0 C4.08667584 0.76031178 5.361335 3.20459959 7.6875 6.5 C9.57838223 12.17264668 9.65545085 18.91229844 7.375 24.5 C5.9387511 27.05333137 4.77012033 28.53988674 2.6875 30.5 C3.49574219 30.73074219 4.30398437 30.96148437 5.13671875 31.19921875 C16.68916574 34.72487507 16.68916574 34.72487507 19.6875 39.5 C19.9375 43.0625 19.9375 43.0625 18.6875 46.5 C8.83233334 53.79282333 -3.56823266 53.51702421 -15.3125 52.5 C-20.57789142 51.37647357 -24.0280384 49.6649768 -28 46.0625 C-29.3125 43.5 -29.3125 43.5 -29.4375 41 C-27.82643001 37.41984446 -25.66534248 35.39907094 -22.3125 33.5 C-16.14458687 31.2246418 -9.83612856 30.11543666 -3.3125 29.5 C-3.786875 28.736875 -4.26125 27.97375 -4.75 27.1875 C-8.18531817 21.27875275 -7.7873837 15.16474713 -7.3125 8.5 C-5.81523918 4.48461872 -4.47363791 0.96727306 0 0 Z " fill="#F5AFA8" transform="translate(214.3125,156.5)"/>
<path d="M0 0 C2.6875 0.375 2.6875 0.375 4.9375 2.75 C8.93258002 8.74262004 8.23932033 15.40199763 7.6875 22.375 C6.67743089 25.50224453 5.49781603 27.60295358 3.6875 30.375 C4.739375 30.2925 5.79125 30.21 6.875 30.125 C13.87392839 30.13749809 22.68306689 32.01206896 28 36.8125 C29.6875 39.375 29.6875 39.375 30.375 41.875 C29.3360634 45.65295126 26.88888117 47.39460472 23.6875 49.375 C17.52317321 52.15932133 12.47366884 52.8421752 5.75 52.75 C4.48639648 52.76740234 4.48639648 52.76740234 3.19726562 52.78515625 C-4.07089416 52.75158507 -10.89884901 51.36061686 -16.9375 47.125 C-19.3125 44.375 -19.3125 44.375 -19.5625 40.8125 C-17.93553592 36.33834877 -16.56890666 35.46586643 -12.3125 33.375 C-9.01234697 32.23396348 -5.69073066 31.25627756 -2.3125 30.375 C-2.951875 29.611875 -3.59125 28.84875 -4.25 28.0625 C-7.53468931 23.78245029 -7.52577364 20.34238664 -7.625 15.0625 C-7.66238281 13.76699219 -7.69976562 12.47148437 -7.73828125 11.13671875 C-7.2025653 6.40374208 -5.17391091 0.83901258 0 0 Z " fill="#F5AFA8" transform="translate(295.3125,156.625)"/>
<path d="M0 0 C14.96470588 2.96470588 14.96470588 2.96470588 19 7 C19.33661952 10.1642235 19.49943411 12.18513382 17.8125 14.9375 C15.23807127 16.44664788 13.85342086 15.70091297 11 15 C9.39425366 14.5050966 7.79016965 14.00477784 6.1875 13.5 C0.58755264 11.91092899 -4.8163891 11.55811055 -10.60473633 11.46679688 C-15.55267964 11.31617825 -15.55267964 11.31617825 -17.9453125 9.625 C-19.47047506 7.2751199 -19.41111296 5.74075309 -19 3 C-15.30863156 -2.5638017 -5.89795473 -0.7030839 0 0 Z " fill="#31336F" transform="translate(301,135)"/>
<path d="M0 0 C0.74958984 -0.01611328 1.49917969 -0.03222656 2.27148438 -0.04882812 C7.63831367 -0.05362422 7.63831367 -0.05362422 10.1796875 1.640625 C11.74414601 4.23592827 11.5015489 6.36044033 11.1875 9.3125 C8.10805544 12.39194456 4.38730916 11.61261301 0.25 11.6875 C-6.65047105 11.90392946 -12.33771078 12.61637018 -18.68359375 15.5703125 C-21.21213593 16.45182262 -22.35128645 16.30534623 -24.8125 15.3125 C-26.8125 13.3125 -26.8125 13.3125 -26.9375 10.1875 C-26.89625 9.23875 -26.855 8.29 -26.8125 7.3125 C-25.31815577 6.51020863 -23.81663528 5.72128133 -22.3125 4.9375 C-21.4771875 4.49664062 -20.641875 4.05578125 -19.78125 3.6015625 C-13.20536903 0.74624576 -7.07930072 -0.0312414 0 0 Z " fill="#31336F" transform="translate(216.8125,134.6875)"/>
<path d="M0 0 C4.08667584 0.76031178 5.361335 3.20459959 7.6875 6.5 C9.57838223 12.17264668 9.65545085 18.91229844 7.375 24.5 C4.76354563 29.14258555 4.76354563 29.14258555 2.6875 30.5 C-0.11695829 30.92066874 -1.61700142 30.96366572 -4 29.375 C-8.30717201 23.22189713 -7.92309212 15.67217903 -7.3125 8.5 C-5.81523918 4.48461872 -4.47363791 0.96727306 0 0 Z " fill="#2F316D" transform="translate(214.3125,156.5)"/>
<path d="M0 0 C2.6875 0.375 2.6875 0.375 4.9375 2.75 C7.7647474 6.99087109 7.87711619 9.49237617 7.9375 14.625 C7.97617187 16.58179688 7.97617187 16.58179688 8.015625 18.578125 C7.58837611 23.52200502 6.20075156 26.86174844 2.6875 30.375 C0.3125 30.8125 0.3125 30.8125 -2.3125 30.375 C-7.00011549 25.55717297 -7.501857 21.61500409 -7.625 15.0625 C-7.66238281 13.76699219 -7.69976562 12.47148437 -7.73828125 11.13671875 C-7.2025653 6.40374208 -5.17391091 0.83901258 0 0 Z " fill="#2D2F6C" transform="translate(295.3125,156.625)"/>
<path d="M0 0 C3.87858933 0.26748892 6.07322683 2.64430452 9 5 C18.52213613 9.76106806 30.61808347 8.93091283 40.55859375 6.00390625 C42.96733367 5.0134324 44.47075939 3.99839483 46.375 2.25 C49 0 49 0 51.875 0.1875 C52.57625 0.455625 53.2775 0.72375 54 1 C53.73339601 4.19924794 53.28552552 5.69605348 51.0625 8.0625 C39.9222284 15.11042693 27.70382356 16.39436872 14.8125 14.375 C9.3515114 13.11477186 4.27277919 10.64007919 0 7 C-1.28125 4.30078125 -1.28125 4.30078125 -2 2 C-1.34 1.34 -0.68 0.68 0 0 Z " fill="#E9857D" transform="translate(229,242)"/>
<path d="M0 0 C1.11375 0.185625 1.11375 0.185625 2.25 0.375 C3.08861979 5.74216665 0.17070405 9.17127239 -2.75 13.375 C-1.63625 13.33375 -0.5225 13.2925 0.625 13.25 C4.25 13.375 4.25 13.375 6.25 15.375 C6.25 16.695 6.25 18.015 6.25 19.375 C2.62 19.375 -1.01 19.375 -4.75 19.375 C-4.42 24.985 -4.09 30.595 -3.75 36.375 C-6.225 36.87 -6.225 36.87 -8.75 37.375 C-9.23108275 35.95898286 -9.70978141 34.54215563 -10.1875 33.125 C-10.45433594 32.33609375 -10.72117187 31.5471875 -10.99609375 30.734375 C-11.24488281 29.95578125 -11.49367188 29.1771875 -11.75 28.375 C-11.976875 27.7665625 -12.20375 27.158125 -12.4375 26.53125 C-12.91796449 23.216045 -12.06331761 20.36853208 -11.3125 17.125 C-11.02503906 15.86171875 -10.73757813 14.5984375 -10.44140625 13.296875 C-10.21324219 12.33265625 -9.98507812 11.3684375 -9.75 10.375 C-9.09 10.375 -8.43 10.375 -7.75 10.375 C-7.6675 9.83875 -7.585 9.3025 -7.5 8.75 C-6.16504685 4.52264834 -4.67299723 0.63722689 0 0 Z " fill="#E6847C" transform="translate(366.75,161.625)"/>
<path d="M0 0 C3.04386724 -0.08226668 5.07175348 0.02391783 8 1 C8.85635115 3.59343356 9.50136339 6.02783872 10.0625 8.6875 C10.23168945 9.44538818 10.40087891 10.20327637 10.57519531 10.98413086 C12.08447684 17.94092997 13.14873312 24.93224474 14 32 C13.34 32 12.68 32 12 32 C11.505 34.475 11.505 34.475 11 37 C9.35 36.67 7.7 36.34 6 36 C6.33 30.39 6.66 24.78 7 19 C3.37 19 -0.26 19 -4 19 C-3 14 -3 14 -2 13 C0.33297433 12.95907063 2.66705225 12.95758277 5 13 C4.6390625 12.48050781 4.278125 11.96101562 3.90625 11.42578125 C-0.7029877 4.49912127 -0.7029877 4.49912127 0 0 Z " fill="#E2827C" transform="translate(143,162)"/>
<path d="M0 0 C1.65 0.33 3.3 0.66 5 1 C4.40335404 7.36422356 1.43245628 10.98220313 -2.28515625 16 C-4.22696788 19.39706454 -4.67996974 21.15576161 -4 25 C-2.30067167 26.78406194 -2.30067167 26.78406194 0 27.875 C0.7425 28.28492188 1.485 28.69484375 2.25 29.1171875 C2.8275 29.40851563 3.405 29.69984375 4 30 C3.505 32.475 3.505 32.475 3 35 C-2.00284542 34.52353853 -5.03079315 33.06711438 -9 30 C-11.12117138 26.81824294 -11.70416829 24.69299743 -11.66015625 20.8828125 C-9.90887019 13.23518464 -4.28398583 6.42597875 0 0 Z " fill="#E9857D" transform="translate(253,199)"/>
</svg>
